# xmcd
#
# Track frame offsets: 
#        150
#        20738
#        63827
#        78417
#        100088
#        127767
#        154282
#        168687
#        187709
#        216125
#        243139
#        261976
#        282448
#        310321
#
# Disc length: 4777 seconds
#
# Revision: 1
# Processed by: cddbd v1.5.2PL0 Copyright (c) Steve Scherf et al.
# Submitted via: ExactAudioCopy v1.1
#
DISCID=bb12a70e
DTITLE=Various Artist - Trail Of The Wolf - vol.03 - Various Of The B
DTITLE=lues  CD1
DYEAR=2017
DGENRE=Blues
TTITLE0=The Blues Mystery - Black Mind With An Angel Heart
TTITLE1=Joe Bonamassa - Tea for One
TTITLE2=American Blues Box - Unconditional Love
TTITLE3=Stoney Curtis Band - Eli's Blues
TTITLE4=Aaron Keylock - Just One Question
TTITLE5=Too Slim and the Taildraggers - Gypsy
TTITLE6=Saxon - Coming Home
TTITLE7=Stevie Nimmo - Love You More Tonight
TTITLE8=Soul River Dogs - Roses For The Dead
TTITLE9=Aynsley Lister - What's It All About
TTITLE10=John Norum - Travel In The Dark
TTITLE11=Rick Derringer - Tough On Me, Tough On You
TTITLE12=Gugun Power Trio - How Can You Play Rock N' Roll
TTITLE13=Snake Head Ritual - Poor Robert's Lament
EXTD=
EXTT0=
EXTT1=
EXTT2=
EXTT3=
EXTT4=
EXTT5=
EXTT6=
EXTT7=
EXTT8=
EXTT9=
EXTT10=
EXTT11=
EXTT12=
EXTT13=
PLAYORDER=
